<?xml version="1.0" encoding="utf-8"?>
<!-- Generator: Adobe Illustrator 27.2.0, SVG Export Plug-In . SVG Version: 6.00 Build 0)  -->
<svg version="1.1" id="Layer_1" xmlns="http://www.w3.org/2000/svg" xmlns:xlink="http://www.w3.org/1999/xlink" x="0px" y="0px"
	 width="72px" height="72px" viewBox="0 0 72 72" style="enable-background:new 0 0 72 72;" xml:space="preserve">
<style type="text/css">
	.st0{fill:#FFFFFF;}
</style>
<g>
	<path d="M36,0c-9.5,0-18.7,3.8-25.5,10.5C3.8,17.3,0,26.5,0,36c0,7.1,2.1,14.1,6.1,20c4,5.9,9.6,10.5,16.2,13.3
		c6.6,2.7,13.8,3.4,20.8,2c7-1.4,13.4-4.8,18.4-9.9c5-5,8.5-11.4,9.9-18.4c1.4-7,0.7-14.2-2-20.8C66.5,15.6,61.9,10,56,6.1
		C50.1,2.1,43.1,0,36,0z"/>
	<rect x="32" y="32" class="st0" width="8" height="22"/>
	<rect x="32" y="18" class="st0" width="8" height="8"/>
</g>
</svg>
