<?xml version="1.0" encoding="utf-8"?>
<!-- Generator: Adobe Illustrator 27.2.0, SVG Export Plug-In . SVG Version: 6.00 Build 0)  -->
<svg version="1.1" id="Layer_1" xmlns="http://www.w3.org/2000/svg" xmlns:xlink="http://www.w3.org/1999/xlink" x="0px" y="0px"
	 width="72px" height="72px" viewBox="0 0 72 72" style="enable-background:new 0 0 72 72;" xml:space="preserve">
<style type="text/css">
	.st0{fill-rule:evenodd;clip-rule:evenodd;}
</style>
<path class="st0" d="M36,0c-7.1,0-14.1,2.1-20,6.1c-5.9,4-10.5,9.6-13.3,16.2C0,28.8-0.7,36,0.7,43c1.4,7,4.8,13.4,9.9,18.4
	c5,5,11.4,8.5,18.4,9.9c7,1.4,14.2,0.7,20.8-2C56.4,66.5,62,61.9,65.9,56c4-5.9,6.1-12.9,6.1-20c0-9.5-3.8-18.7-10.5-25.5
	C54.7,3.8,45.5,0,36,0z M40,58h-8v-8h8V58z M42,38c-0.6,0.2-1.1,0.6-1.4,1.1c-0.4,0.5-0.6,1.1-0.6,1.7c0,0.4,0,2.8,0,3.2h-8v-4
	c-0.1-1.3,0.2-2.6,0.9-3.7c0.7-1.1,1.8-1.9,3.1-2.3s2.4-1.2,3.1-2.3c0.7-1.1,1.1-2.4,0.9-3.7c0-2,0-4-4-4s-4,0-4,4h-8
	c-0.1-1.6,0.1-3.2,0.7-4.7c0.6-1.5,1.4-2.9,2.6-4c1.1-1.1,2.5-2,4-2.6c1.5-0.6,3.1-0.8,4.7-0.7c1.6-0.1,3.2,0.2,4.7,0.8
	c1.5,0.6,2.8,1.5,4,2.6c1.1,1.1,2,2.5,2.6,4c0.6,1.5,0.9,3.1,0.8,4.7c0.2,2.1-0.3,4.2-1.4,6C45.5,35.8,43.9,37.2,42,38z"/>
</svg>
