<?xml version="1.0" encoding="utf-8"?>
<!-- Generator: Adobe Illustrator 27.2.0, SVG Export Plug-In . SVG Version: 6.00 Build 0)  -->
<svg version="1.1" id="Layer_1" xmlns="http://www.w3.org/2000/svg" xmlns:xlink="http://www.w3.org/1999/xlink" x="0px" y="0px"
	 width="90px" height="72px" viewBox="0 0 90 72" style="enable-background:new 0 0 90 72;" xml:space="preserve">
<path d="M18,36H0l22.5,22.5L45,36H27c0-5.3,1.6-10.6,4.6-15c3-4.4,7.2-7.9,12.1-9.9S54,8.5,59.3,9.5c5.2,1,10,3.6,13.8,7.4
	c3.8,3.8,6.3,8.6,7.4,13.8c1,5.2,0.5,10.7-1.5,15.6c-2,4.9-5.5,9.2-9.9,12.1c-4.4,3-9.7,4.6-15,4.6v9c7.1,0,14.1-2.1,20-6.1
	c5.9-4,10.5-9.6,13.3-16.1C90,43.2,90.7,36,89.3,29c-1.4-7-4.8-13.4-9.8-18.4c-5-5-11.4-8.5-18.4-9.9S46.8,0,40.2,2.7
	C33.7,5.5,28,10.1,24.1,16S18,28.9,18,36z"/>
</svg>
