<?xml version="1.0" encoding="utf-8"?>
<!-- Generator: Adobe Illustrator 27.2.0, SVG Export Plug-In . SVG Version: 6.00 Build 0)  -->
<svg version="1.1" id="Layer_1" xmlns="http://www.w3.org/2000/svg" xmlns:xlink="http://www.w3.org/1999/xlink" x="0px" y="0px"
	 width="81px" height="72px" viewBox="0 0 81 72" style="enable-background:new 0 0 81 72;" xml:space="preserve">
<style type="text/css">
	.st0{fill-rule:evenodd;clip-rule:evenodd;}
	.st1{fill-rule:evenodd;clip-rule:evenodd;fill:#FFFFFF;}
</style>
<g>
	<path class="st0" d="M80.4,65.7L44.2,2.2c-0.3-0.7-0.9-1.2-1.5-1.6C42,0.2,41.3,0,40.6,0c-0.7,0-1.5,0.2-2.1,0.6
		C37.8,1,37.3,1.5,37,2.2L0.7,65.7C0.3,66.3,0,67.1,0,67.8c0,0.8,0.2,1.5,0.5,2.1c0.4,0.7,0.9,1.2,1.6,1.5C2.8,71.9,3.5,72,4.3,72
		h72.5l2-0.4c0.5-0.3,0.9-0.6,1.2-1c0.3-0.4,0.6-0.9,0.7-1.4C81,68.5,81,68,81,67.5c-0.1-0.5-0.3-1.1-0.5-1.5V65.7z"/>
	<rect x="36.1" y="54" class="st1" width="9" height="9"/>
	<rect x="36.1" y="24.9" class="st1" width="9" height="22.4"/>
</g>
</svg>
