<?xml version="1.0" encoding="utf-8"?>
<!-- Generator: Adobe Illustrator 26.5.1, SVG Export Plug-In . SVG Version: 6.00 Build 0)  -->
<svg version="1.1" id="Layer_1" xmlns="http://www.w3.org/2000/svg" xmlns:xlink="http://www.w3.org/1999/xlink" x="0px" y="0px"
	 width="59.3px" height="72px" viewBox="0 0 59.3 72" style="enable-background:new 0 0 59.3 72;" xml:space="preserve">
<style type="text/css">
	.st0{fill-rule:evenodd;clip-rule:evenodd;}
	.st1{fill-rule:evenodd;clip-rule:evenodd;fill:#FFFFFF;}
</style>
<g>
	<polygon class="st0" points="10.8,72 48.5,72 52.9,21.2 6.4,21.2 	"/>
	<path class="st0" d="M46.6,10.6V6.4c0-1.7-0.7-3.3-1.9-4.5C43.5,0.7,41.9,0,40.2,0H19.1c-1.7,0-3.3,0.7-4.5,1.9
		c-1.2,1.2-1.9,2.8-1.9,4.5v4.2H0v6.4h59.3v-6.4H46.6z"/>
	<path class="st1" d="M40.2,10.6H19.1V8.5c0-0.6,0.2-1.1,0.6-1.5c0.4-0.4,0.9-0.6,1.5-0.6h16.9c0.6,0,1.1,0.2,1.5,0.6
		c0.4,0.4,0.6,0.9,0.6,1.5V10.6z"/>
</g>
</svg>
