<svg width="176" height="176" xmlns="http://www.w3.org/2000/svg" xmlns:xlink="http://www.w3.org/1999/xlink">
  <defs>
    <mask id="instinct2x-5fields-4-mask">
      <rect width="100%" height="100%" fill="black"/>
<path d="M 39.599999999999994, 0 L 136.4, 0 L 176, 39.599999999999994 L 176, 136.4 L 136.4, 176 L 39.599999999999994, 176 L 0, 136.4 L 0, 39.599999999999994 L 39.599999999999994, 0 " style="fill:white"/><circle cx="144.0" cy="31.0" r="31.0" style="fill:black"/>    </mask>
  </defs>
  <rect x="0" y="0" width="108" height="71" mask="url(#instinct2x-5fields-4-mask)" style="stroke-width:2;stroke:rgb(0,0,0);fill:none"/>
  <rect x="0" y="72" width="87" height="76" mask="url(#instinct2x-5fields-4-mask)" style="stroke-width:2;stroke:rgb(0,0,0);fill:none"/>
  <rect x="88" y="72" width="88" height="76" mask="url(#instinct2x-5fields-4-mask)" style="stroke-width:2;stroke:rgb(0,0,0);fill:none"/>
  <rect x="32" y="149" width="110" height="27" mask="url(#instinct2x-5fields-4-mask)" style="stroke-width:2;stroke:rgb(0,0,0);fill:none"/>
  <rect x="113" y="1" width="62" height="62" mask="url(#instinct2x-5fields-4-mask)" style="stroke-width:2;stroke:rgb(0,0,0);fill:none"/>
<path d="M 39.599999999999994, 0 L 136.4, 0 L 176, 39.599999999999994 L 176, 136.4 L 136.4, 176 L 39.599999999999994, 176 L 0, 136.4 L 0, 39.599999999999994 L 39.599999999999994, 0 " style="stroke-width:1;stroke:rgb(0,0,0);fill:none"/><circle cx="144.0" cy="31.0" r="31.0" style="fill:black"/></svg>
